<svg xmlns="http://www.w3.org/2000/svg" viewBox="0 0 880 540" width="880" height="540" font-family="'JetBrains Mono', ui-monospace, 'Cascadia Code', 'SF Mono', 'Fira Code', Menlo, Consolas, monospace" role="img" aria-label="Dimitris Sofikitis profile card">
<defs><style>
    .bg     { fill: #000000; }
    .text   { fill: #e0e0e0; }
    .dim    { fill: #777777; }
    .accent { fill: #cc0000; }
    .cyan   { fill: #00d4aa; }
    .amber  { fill: #ffab00; }
    .blue   { fill: #448aff; }
    .panel  { fill: rgba(224,224,224,0.04); stroke: rgba(224,224,224,0.10); stroke-width: 1; }
    .rule   { stroke: rgba(224,224,224,0.08); stroke-width: 1; }
    .h1     { font-size: 28px; font-weight: 700; letter-spacing: 0.15em; }
    .role   { font-size: 11px; letter-spacing: 0.18em; }
    .mono   { font-size: 12px; }
    .small  { font-size: 10px; letter-spacing: 0.06em; }
    .label  { font-size: 9px; letter-spacing: 0.18em; font-weight: 700;
               stroke: #000000; stroke-width: 6px; stroke-linejoin: round;
               paint-order: stroke fill; }
    .stat   { font-size: 22px; font-weight: 700; }
    .stat-l { font-size: 9px; letter-spacing: 0.12em; }

    .blink  { animation: blink 1.05s step-end infinite; }
    @keyframes blink { 0%, 100% { opacity: 1; } 50% { opacity: 0; } }

    .fade-1 { opacity: 0; animation: fadein .55s ease-out .00s forwards; }
    .fade-2 { opacity: 0; animation: fadein .55s ease-out .15s forwards; }
    .fade-3 { opacity: 0; animation: fadein .55s ease-out .30s forwards; }
    .fade-4 { opacity: 0; animation: fadein .55s ease-out .45s forwards; }
    .fade-5 { opacity: 0; animation: fadein .55s ease-out .60s forwards; }
    .fade-6 { opacity: 0; animation: fadein .55s ease-out .75s forwards; }
    .fade-7 { opacity: 0; animation: fadein .55s ease-out .90s forwards; }
    .fade-8 { opacity: 0; animation: fadein .55s ease-out 1.05s forwards; }
    @keyframes fadein { from { opacity: 0; } to { opacity: 1; } }

    .reveal { clip-path: inset(0 100% 0 0); animation: reveal 1.4s cubic-bezier(.23,1,.32,1) .9s forwards; }
    @keyframes reveal { to { clip-path: inset(0 0 0 0); } }
    </style></defs>
<path class="bg" d="M 10 0 L 870 0 A 10 10 0 0 1 880 10 L 880 530 A 10 10 0 0 1 870 540 L 10 540 A 10 10 0 0 1 0 530 L 0 10 A 10 10 0 0 1 10 0 Z" />
<g class="fade-1"><text x="32" y="58" class="h1 text">DIMITRIS SOFIKITIS</text><text x="34" y="80" class="role dim">AI/ML SOFTWARE ENGINEER · ATHENS, GR</text></g>
<g class="fade-2"><text x="32" y="112" class="mono"><tspan class="dim">&gt; </tspan><tspan class="text">Engineering Trust in a world of Chaos</tspan><tspan class="accent blink">█</tspan></text></g>
<g class="fade-3"><text x="32" y="146" class="mono dim">0x0000</text><text x="92" y="146" class="mono text" letter-spacing="1">44 49 4D 49 54 52 49 53 20 53 4F 46 49 4B 49 54 49 53</text><text x="848" y="146" text-anchor="end" class="mono dim">DIMITRIS SOFIKITIS</text></g>
<line x1="32" y1="160" x2="848" y2="160" class="rule" />
<g class="fade-4"><text x="32" y="184" class="mono"><tspan class="dim">[BOOT] </tspan><tspan class="text">init engineering trust</tspan></text><text x="848" y="184" text-anchor="end" class="mono accent">[ OK ]</text></g>
<g class="fade-5"><text x="32" y="206" class="mono"><tspan class="dim">[BOOT] </tspan><tspan class="text">securing agentic systems</tspan></text><text x="848" y="206" text-anchor="end" class="mono accent">[ OK ]</text></g>
<g class="fade-6"><text x="32" y="228" class="mono"><tspan class="dim">[BOOT] </tspan><tspan class="text">breaking what shouldn't be trusted</tspan></text><text x="848" y="228" text-anchor="end" class="mono accent">[ OK ]</text></g>
<g class="fade-6"><rect x="32" y="268" width="261" height="110" rx="10" class="panel" />
<text x="50" y="271" class="label cyan">[ NOW ]</text>
<text x="48" y="302" class="mono dim">·</text><text x="62" y="302" class="mono text">zerotrust-gatekeeper</text>
<text x="48" y="324" class="mono dim">·</text><text x="62" y="324" class="mono text">sentinel-stream</text>
<text x="48" y="346" class="mono dim">·</text><text x="62" y="346" class="mono text">chronos-agenda</text>
</g>
<g class="fade-7"><rect x="309" y="268" width="261" height="110" rx="10" class="panel" />
<text x="327" y="271" class="label amber">[ STATS ]</text>
<text x="325" y="300" class="small dim">commits/30d</text><text x="554" y="300" text-anchor="end" class="stat text">1</text>
<text x="325" y="324" class="small dim">repos·active</text><text x="554" y="324" text-anchor="end" class="stat text">13</text>
<text x="325" y="348" class="small dim">stars</text><text x="554" y="348" text-anchor="end" class="stat text">13</text>
</g>
<g class="fade-8"><rect x="586" y="268" width="261" height="110" rx="10" class="panel" />
<text x="604" y="271" class="label accent">[ NEXT ]</text>
<text x="602" y="302" class="mono dim">·</text><text x="616" y="302" class="mono text">MSc Cyber Security</text>
<text x="602" y="324" class="mono dim">·</text><text x="616" y="324" class="mono text">NTNU, Trondheim, Norway</text>
<text x="602" y="346" class="mono dim">·</text><text x="616" y="346" class="mono text">T-12 days</text>
</g>
<g class="fade-7"><text x="32" y="408" class="mono"><tspan class="dim">&gt; </tspan><tspan class="text">languages --top 6</tspan></text></g>
<g class="fade-8 reveal">
<rect x="32" y="424" width="816" height="8" rx="2" fill="rgba(224,224,224,0.08)" />
<rect x="32" y="424" width="328" height="8" fill="#A8B9CC" />
<rect x="360" y="424" width="186" height="8" fill="#F7DF1E" />
<rect x="546" y="424" width="106" height="8" fill="#3178C6" />
<rect x="652" y="424" width="88" height="8" fill="#3776AB" />
<rect x="740" y="424" width="53" height="8" fill="#00ADD8" />
<rect x="793" y="424" width="53" height="8" fill="#ED8B00" />
</g>
<g class="fade-8"><circle cx="36" cy="451" r="3" fill="#A8B9CC" /><text x="46" y="454" class="small text">C</text><text x="300" y="454" text-anchor="end" class="small dim">37%</text></g>
<g class="fade-8"><circle cx="308" cy="451" r="3" fill="#F7DF1E" /><text x="318" y="454" class="small text">JavaScript</text><text x="572" y="454" text-anchor="end" class="small dim">21%</text></g>
<g class="fade-8"><circle cx="580" cy="451" r="3" fill="#3178C6" /><text x="590" y="454" class="small text">TypeScript</text><text x="844" y="454" text-anchor="end" class="small dim">12%</text></g>
<g class="fade-8"><circle cx="36" cy="471" r="3" fill="#3776AB" /><text x="46" y="474" class="small text">Python</text><text x="300" y="474" text-anchor="end" class="small dim">10%</text></g>
<g class="fade-8"><circle cx="308" cy="471" r="3" fill="#00ADD8" /><text x="318" y="474" class="small text">Go</text><text x="572" y="474" text-anchor="end" class="small dim">6%</text></g>
<g class="fade-8"><circle cx="580" cy="471" r="3" fill="#ED8B00" /><text x="590" y="474" class="small text">Java</text><text x="844" y="474" text-anchor="end" class="small dim">6%</text></g>
<g class="fade-8"><text x="32" y="520" class="small dim">&gt; last_sync: 2026-07-17</text><text x="848" y="520" text-anchor="end" class="small dim">dimitrisofikitis.com</text></g>
</svg>
