<svg xmlns="http://www.w3.org/2000/svg" viewBox="0 0 880 270" width="880" height="270" font-family="'JetBrains Mono', ui-monospace, 'Cascadia Code', 'SF Mono', 'Fira Code', Menlo, Consolas, monospace" role="img" aria-label="Dimitris Sofikitis contact endpoints">
<defs><style>
    .bg     { fill: #f0f0f0; }
    .text   { fill: #1a1a1a; }
    .dim    { fill: #888888; }
    .accent { fill: #cc0000; }
    .cyan   { fill: #009688; }
    .amber  { fill: #e65100; }
    .panel  { fill: rgba(0,0,0,0.03); stroke: rgba(0,0,0,0.10); stroke-width: 1; }
    .rule   { stroke: rgba(0,0,0,0.08); stroke-width: 1; }
    .label  { font-size: 9px; letter-spacing: 0.18em; font-weight: 700;
               stroke: #f0f0f0; stroke-width: 6px; stroke-linejoin: round;
               paint-order: stroke fill; }
    .mono   { font-size: 13px; }
    .small  { font-size: 10px; letter-spacing: 0.06em; }
    .key    { font-size: 13px; letter-spacing: 0.10em; font-weight: 700; }

    .blink  { animation: blink 1.05s step-end infinite; }
    @keyframes blink { 0%, 100% { opacity: 1; } 50% { opacity: 0; } }

    .fade-1 { opacity: 0; animation: fadein .55s ease-out .00s forwards; }
    .fade-2 { opacity: 0; animation: fadein .55s ease-out .15s forwards; }
    .fade-3 { opacity: 0; animation: fadein .55s ease-out .30s forwards; }
    .fade-4 { opacity: 0; animation: fadein .55s ease-out .45s forwards; }
    .fade-5 { opacity: 0; animation: fadein .55s ease-out .60s forwards; }
    .fade-6 { opacity: 0; animation: fadein .55s ease-out .75s forwards; }
    @keyframes fadein { from { opacity: 0; } to { opacity: 1; } }
    </style></defs>
<path class="bg" d="M 0.0 0 L 880.0 0 L 880 260 A 10 10 0 0 1 870 270 L 10 270 A 10 10 0 0 1 0 260 L 0 0.0 Z" />
<path d="M 22 32 L 858 32 A 10 10 0 0 1 868 42 L 868 248 A 10 10 0 0 1 858 258 L 22 258 A 10 10 0 0 1 12 248 L 12 42 A 10 10 0 0 1 22 32 Z" class="panel" />
<text x="30" y="22" class="label cyan">[ elsewhere ]</text>
<g class="fade-1"><text x="32" y="64" class="mono"><tspan class="dim">$ </tspan><tspan class="text">cat ~/contacts++</tspan><tspan class="accent blink">█</tspan></text></g>
<line x1="32" y1="80" x2="848" y2="80" class="rule" />
<g class="fade-2"><text x="32" y="108" class="mono dim">0x00</text><text x="122" y="108" class="key amber">site</text><text x="202" y="108" class="mono dim">▸</text><text x="272" y="108" class="mono text">dimitrisofikitis.com</text></g>
<g class="fade-3"><text x="32" y="132" class="mono dim">0x01</text><text x="122" y="132" class="key amber">linkedin</text><text x="202" y="132" class="mono dim">▸</text><text x="272" y="132" class="mono text">/in/dimitrisofikitis</text></g>
<g class="fade-4"><text x="32" y="156" class="mono dim">0x02</text><text x="122" y="156" class="key amber">email</text><text x="202" y="156" class="mono dim">▸</text><text x="272" y="156" class="mono text">d.sofikitis@icloud.com</text></g>
<g class="fade-5"><text x="32" y="180" class="mono dim">0x03</text><text x="122" y="180" class="key amber">resume</text><text x="202" y="180" class="mono dim">▸</text><text x="272" y="180" class="mono text">dimitrisofikitis.com/resume</text></g>
<g class="fade-6"><text x="32" y="204" class="mono dim">0x04</text><text x="122" y="204" class="key amber">apps</text><text x="202" y="204" class="mono dim">▸</text><text x="272" y="204" class="mono text">apps.dimitrisofikitis.com</text></g>
<g class="fade-6"><text x="32" y="246" class="small dim">EOF · last_sync: 2026-05-14</text></g>
</svg>
